<?xml version="1.0" encoding="UTF-8" standalone="no"?>
<svg
   id="Layer_1"
   data-name="Layer 1"
   viewBox="0 0 480249 33489"
   version="1.1"
   width="480249"
   height="33489"
   xmlns:xlink="http://www.w3.org/1999/xlink"
   xmlns="http://www.w3.org/2000/svg"
   xmlns:svg="http://www.w3.org/2000/svg">
  <defs
     id="defs1">
    <linearGradient
       id="linearGradient3">
      <stop
         style="stop-color:#ef4056;stop-opacity:1;"
         offset="0.49647889"
         id="stop3" />
      <stop
         style="stop-color:#c75261;stop-opacity:1;"
         offset="1"
         id="stop4" />
    </linearGradient>
    <linearGradient
       xlink:href="#linearGradient3"
       id="linearGradient4"
       x1="68.500061"
       y1="146.21886"
       x2="68.500061"
       y2="39.218723"
       gradientUnits="userSpaceOnUse" />
  </defs>
  <title
     id="title1">Pocket Logo</title>
  <path
     id="logo"
     d="m 99.06,84.84 -25.52,24 a 6.69,6.69 0 0 1 -4.88,2.07 7.22,7.22 0 0 1 -5.25,-2.07 l -25.14,-24 a 7.59,7.59 0 0 1 0,-10.51 c 2.81,-2.63 7.5,-3 10.32,0 L 68.66,93.66 89.11,74.33 c 2.63,-3 7.32,-2.63 10,0 a 8,8 0 0 1 0,10.51 M 112,45.06 H 25.32 A 10.1,10.1 0 0 0 15,55 v 32.09 c 0,29.08 24,53.29 53.66,53.29 A 53.5,53.5 0 0 0 122,87.09 V 55 a 9.89,9.89 0 0 0 -10,-9.94"
     fill="#ef4056"
     fill-rule="evenodd"
     style="fill:url(#linearGradient4)" />
  <path
     style="mix-blend-mode:saturation;fill:#c45061;fill-opacity:1"
     d="m 105,45 v 60 h 5 V 45 Z"
     id="path6" />
  <path
     style="mix-blend-mode:saturation;fill:#a05a2c;fill-opacity:1;stroke-width:0.57735"
     d="m 85,45 v 20 h 5 V 45 Z"
     id="path6-2" />
  <path
     style="mix-blend-mode:saturation;fill:#a05a2c;fill-opacity:1;stroke-width:0.912345"
     d="M 25.022097,45.057577 V 95 h 5 V 45.057577 Z"
     id="path6-2-1" />
  <circle
     style="fill:#c75261;fill-opacity:1"
     id="path7"
     cx="107.5"
     cy="105"
     r="2.5" />
  <circle
     style="fill:#c75261;fill-opacity:1"
     id="path7-5"
     cx="87.5"
     cy="65"
     r="2.5" />
  <circle
     style="fill:#c75261;fill-opacity:1"
     id="path7-5-2"
     cx="27.522097"
     cy="95"
     r="2.5" />
  <path
     style="fill:#965a36;fill-opacity:1"
     d="m 25.022097,45.057577 h 35 c 0,0 0,-5 -5,-5 -5,0 -25,0 -25,0 0,0 -5,0 -5,5 z"
     id="path8" />
  <path
     style="fill:#704429;fill-opacity:1"
     d="m 75.015625,45.06 h 30.000005 c 0,0 0,-10 -10.000005,-10 -10,0 -10,0 -10,0 0,0 -10,0 -10,10 z"
     id="path11" />
  <path
     style="fill:#965a36;fill-opacity:1"
     d="m 90.015625,45.06 c 0,0 0,-5 5,-5 4.999995,0 9.999995,0 9.999995,0 0,0 5,0 5,5 0,5 0,0 0,0 z"
     id="path12" />
</svg>
