<?xml version="1.0" encoding="UTF-8" standalone="no"?>
<!-- Created with Inkscape (http://www.inkscape.org/) -->

<svg
   width="50.271057mm"
   height="26.458359mm"
   viewBox="0 0 50.271057 26.458359"
   version="1.1"
   id="svg1"
   xml:space="preserve"
   xmlns="http://www.w3.org/2000/svg"
   xmlns:svg="http://www.w3.org/2000/svg"><defs
     id="defs1" /><path
     id="path3-7"
     style="fill:#777bac;fill-opacity:1;stroke-width:0.264583"
     d="M 43.656482,19.843747 V 1.3229171 c 3.47121,3.47121 6.61458,6.61458 6.61458,6.61458 v 5.2916699 z" /><path
     id="path3"
     style="fill:#777bac;fill-opacity:1;stroke-width:0.264583"
     d="M 6.6145869,19.843747 V 1.3229171 C 3.1433779,4.7941271 3.8927024e-6,7.9374971 3.8927024e-6,7.9374971 v 5.2916699 z" /><path
     style="fill:#ffeeaa;fill-opacity:1;stroke-width:0.28167"
     d="M 25.135632,-2.9198203e-6 V 22.489577 c 0,0 -21.1666581,0 -21.1666581,-11.24479 0,-11.2447899198203 0,-5.6223999 0,-5.6223999 0,0 0,-5.6223900198203 5.644446,-5.6223900198203 5.6444421,0 15.5222121,0 15.5222121,0 z"
     id="path1-4-2" /><path
     style="fill:#ffeeaa;fill-opacity:1;stroke-width:0.28167"
     d="M 25.135642,-2.9198203e-6 V 22.489577 c 0,0 21.16666,0 21.16666,-11.24479 0,-11.2447899198203 0,-5.6223999 0,-5.6223999 0,0 0,-5.6223900198203 -5.64445,-5.6223900198203 -5.64445,0 -15.52221,0 -15.52221,0 z"
     id="path1-4-76-1" /><path
     style="fill:#be734a;fill-opacity:1;stroke-width:0.28167"
     d="M 25.135642,26.458347 V 3.9687671 c 0,0 -21.1666701,0 -21.1666701,11.2447899 0,11.24479 0,5.6224 0,5.6224 0,0 0,5.62239 5.64445,5.62239 5.6444501,0 15.5222201,0 15.5222201,0 z"
     id="path1-4-7" /><path
     style="fill:#67aa96;fill-opacity:1;stroke-width:0.28167"
     d="M 25.135642,1.3229171 V 23.812497 c 0,0 -21.1666621,0 -21.1666621,-11.24479 0,-11.2447899 0,-5.6223999 0,-5.6223999 0,0 0,-5.62239 5.644446,-5.62239 5.6444461,0 15.5222161,0 15.5222161,0 z"
     id="path1-4" /><path
     style="fill:#777bac;fill-opacity:1;stroke-width:0.264583"
     d="M 25.135642,2.6458371 V 23.812497 c 0,0 -19.8437481,0 -19.8437481,-10.58333 0,-10.5833299 0,-5.2916699 0,-5.2916699 0,0 0,-5.29166 5.2916671,-5.29166 5.291671,0 14.552081,0 14.552081,0 z"
     id="path1" /><path
     style="fill:#be734a;fill-opacity:1;stroke-width:0.28167"
     d="M 25.135652,26.458347 V 3.9687671 c 0,0 21.16666,0 21.16666,11.2447899 0,11.24479 0,5.6224 0,5.6224 0,0 0,5.62239 -5.64445,5.62239 -5.64445,0 -15.52221,0 -15.52221,0 z"
     id="path1-4-7-2" /><path
     style="fill:#67aa96;fill-opacity:1;stroke-width:0.28167"
     d="M 25.135652,1.3229171 V 23.812497 c 0,0 21.16665,0 21.16665,-11.24479 0,-11.2447899 0,-5.6223999 0,-5.6223999 0,0 0,-5.62239 -5.64444,-5.62239 -5.64445,0 -15.52221,0 -15.52221,0 z"
     id="path1-4-76" /><path
     style="fill:#777bac;fill-opacity:1;stroke-width:0.264583"
     d="M 25.135652,2.6458371 V 23.812497 c 0,0 19.84374,0 19.84374,-10.58333 0,-10.5833299 0,-5.2916699 0,-5.2916699 0,0 0,-5.29166 -5.29167,-5.29166 -5.29167,0 -14.55207,0 -14.55207,0 z"
     id="path1-1" /><path
     style="fill:#67aa96;fill-opacity:1;stroke-width:0.264583"
     d="M 3.9689779,7.9374971 H 2.278927e-4 V 13.229167 H 5.2918939 V 7.9374971 Z"
     id="path5" /><path
     style="fill:#ffeeaa;fill-opacity:1;stroke-width:0.264583"
     d="m 9.2606469,7.9374971 c 0,0 -1.322916,0 -1.322916,-1.32291 0,-1.32292 1.322916,-1.32292 1.322916,-1.32292 H 41.010642 c 0,0 1.32292,0 1.32292,1.32292 0,1.32291 -1.32292,1.32291 -1.32292,1.32291 z"
     id="path7" /><path
     style="fill:#be734a;fill-opacity:1;stroke-width:0.264583"
     d="m 9.2606439,6.6145871 c 0,0 0,-0.26459 0.264584,-0.26459 0.264583,0 31.2208341,0 31.2208341,0 0,0 0.26458,0 0.26458,0.26459 0,0.26458 -0.26458,0.26458 -0.26458,0.26458 H 9.5252279 c 0,0 -0.264584,0 -0.264584,-0.26458 z"
     id="path8" /><path
     style="fill:#67aa96;fill-opacity:1;stroke-width:0.264583"
     d="m 46.302312,7.9374971 h 3.96875 v 5.2916699 h -5.29167 V 7.9374971 Z"
     id="path5-6" /><path
     style="fill:#666666;fill-opacity:1;stroke-width:0.264583"
     d="m 10.583566,6.6145871 h 0.26458 l 1.058336,4.7624999 c 0,0 0,0.26458 -0.26458,0.26458 -0.264582,0 -2.1166771,0 -2.1166771,0 0,0 -0.26459,0 -0.26459,-0.26458 0,-0.26458 1.0583411,-4.7624999 1.0583411,-4.7624999 z"
     id="path9" /></svg>
